<svg width="24" height="24" viewBox="0 0 24 24" fill="none" xmlns="http://www.w3.org/2000/svg">
  <path d="M6.25 11.5C4.73122 11.5 3.5 12.7312 3.5 14.25C3.5 17.7018 6.6525 20.1637 9.7424 22.0165C10.4502 22.4409 11.3044 22.4409 12.0122 22.0165C15.1021 20.1637 18.2546 17.7018 18.2546 14.25C18.2546 12.7312 17.0234 11.5 15.5046 11.5C14.5147 11.5 13.6471 12.0233 13.1645 12.8099L12 14.708L10.8355 12.8099C10.3528 12.0233 9.48528 11.5 8.49539 11.5H6.25Z" fill="#D94B4B"/>
  <path d="M14.3551 3.07324C12.8164 3.07324 11.5309 4.1166 11.1607 5.53918C10.7905 4.1166 9.50501 3.07324 7.96636 3.07324C6.13873 3.07324 4.65698 4.55499 4.65698 6.38262C4.65698 8.94708 6.99987 10.7752 9.29629 12.1523C10.4132 12.822 11.9082 12.822 13.0251 12.1523C15.3215 10.7752 17.6644 8.94708 17.6644 6.38262C17.6644 4.55499 16.1827 3.07324 14.3551 3.07324Z" stroke="#1E2D4D" stroke-width="1.4"/>
  <path d="M12 14.7L10.8355 12.8099C10.3528 12.0233 9.48528 11.5 8.49539 11.5H6.25C4.73122 11.5 3.5 12.7312 3.5 14.25C3.5 17.7018 6.6525 20.1637 9.7424 22.0165C10.4502 22.4409 11.3044 22.4409 12.0122 22.0165C15.1021 20.1637 18.2546 17.7018 18.2546 14.25C18.2546 12.7312 17.0234 11.5 15.5046 11.5C14.5147 11.5 13.6471 12.0233 13.1645 12.8099L12 14.7Z" stroke="#1E2D4D" stroke-width="1.4" stroke-linejoin="round"/>
  <path d="M19.25 5.25V10.75" stroke="#1E2D4D" stroke-width="1.4" stroke-linecap="round"/>
  <path d="M22 8H16.5" stroke="#1E2D4D" stroke-width="1.4" stroke-linecap="round"/>
</svg>
